# xmcd
#
# Track frame offsets: 
#        150
#        4982
#        21822
#        39842
#        58540
#        59057
#        78155
#        85082
#        89177
#        99797
#        111780
#        117037
#        129925
#        148075
#        163045
#        177232
#        194549
#        212868
#        221625
#        222697
#        238890
#        248145
#        248540
#        270262
#
# Disc length: 3901 seconds
#
# Revision: 14
# Processed by: cddbd v1.5.2PL0 Copyright (c) Steve Scherf et al.
# Submitted via: ExactAudioCopyFreeDBPlugin 1.0
#
DISCID=550f3b18
DTITLE=Ghostface Killah - FishScale
DYEAR=2006
DGENRE=Hip-Hop
TTITLE0=The Return of Clyde Smith (Skit)
TTITLE1=Shakey Dog
TTITLE2=Kilo (feat. Raekwon)
TTITLE3=The Champ
TTITLE4=Major Operation (Skit)
TTITLE5=9 Milli Bros. (feat. Wu Tang Clan)
TTITLE6=Beauty Jackson
TTITLE7=Heart Street Directions (Skit)
TTITLE8=Columbus Exchange (Skit) - Crack Spot
TTITLE9=R.A.G.U. (feat. Raekwon)
TTITLE10=Bad Mouth Kid (Skit)
TTITLE11=Whip You With a Strap
TTITLE12=Back Like That (feat. Ne-Yo)
TTITLE13=Be Easy (feat. Trife)
TTITLE14=Clipse of Doom (feat. Trife)
TTITLE15=Jellyfish (feat. Theodore Unit (Capadonna, Shawn Wigs and Trife
TTITLE15=))
TTITLE16=Dogs of War (feat. Raekwon and Theodore Unit (Trife, Capadonna 
TTITLE16=& Sun God))
TTITLE17=Barbershop
TTITLE18=Ms. Sweetwater (Skit)
TTITLE19=Big Girl
TTITLE20=Underwater
TTITLE21=The Ironman Takeover (Skit)
TTITLE22=Momma (feat. Megan Rochell)
TTITLE23=Three Bricks (feat. The Notorious B.I.G. and Raekwon)
EXTD=
EXTT0=
EXTT1=
EXTT2=
EXTT3=
EXTT4=
EXTT5=
EXTT6=
EXTT7=
EXTT8=
EXTT9=
EXTT10=
EXTT11=
EXTT12=
EXTT13=
EXTT14=
EXTT15=
EXTT16=
EXTT17=
EXTT18=
EXTT19=
EXTT20=
EXTT21=
EXTT22=
EXTT23=
PLAYORDER=
